<?xml version="1.0" encoding="UTF-8" standalone="no"?>
<!-- Created with Inkscape (http://www.inkscape.org/) -->

<svg
   width="340"
   height="340"
   viewBox="0 0 89.958336 89.958334"
   version="1.1"
   id="svg5"
   xmlns="http://www.w3.org/2000/svg"
   xmlns:svg="http://www.w3.org/2000/svg">
  <defs
     id="defs2" />
  <g
     id="layer1"
     transform="translate(0.19750719,-100.259)">
    <path
       style="opacity:1;fill:#ffffff;stroke-width:0.264583"
       d="m 28.653058,174.99357 c -5.224153,-1.40486 -7.980892,-5.54988 -7.643524,-11.49278 0.198985,-3.50524 1.762569,-6.13753 5.812266,-9.78493 2.76339,-2.48888 3.514548,-3.36082 5.320599,-6.17616 0.697436,-1.08719 2.185717,-2.85112 3.307292,-3.91985 7.351241,-7.00484 16.219284,-5.17203 22.608516,4.67263 1.239853,1.9104 2.333742,3.19603 3.935391,4.62522 3.301196,2.94574 4.646362,4.45922 5.530702,6.2227 1.714889,3.41971 1.664444,7.20748 -0.145161,10.89977 -1.782072,3.63612 -4.874217,5.35449 -9.649597,5.3625 -2.377432,0.004 -3.628832,-0.31323 -7.805209,-1.97855 -4.468572,-1.78183 -5.617813,-1.77065 -10.403364,0.10121 -1.938308,0.75816 -4.12745,1.49289 -4.864759,1.63271 -1.873088,0.35523 -4.31986,0.28819 -6.003152,-0.16447 z m -9.817267,-24.98962 c -5.4989,-0.70844 -9.0862742,-8.53337 -6.501022,-14.18031 0.987809,-2.15766 2.105283,-3.42007 3.731849,-4.21587 1.236392,-0.60492 1.696732,-0.68994 3.230011,-0.59657 2.145998,0.13068 3.514976,0.7414 5.011037,2.23548 2.558166,2.5548 3.619714,6.94648 2.707372,11.20057 -0.787672,3.67279 -4.296944,6.05687 -8.179247,5.5567 z m 47.889584,-0.54225 c -2.380448,-1.07754 -3.732591,-3.07687 -4.266234,-6.30821 -1.276572,-7.72993 5.034036,-14.35891 11.013109,-11.56869 2.885861,1.34672 4.381551,3.9394 4.570041,7.92185 0.10539,2.22683 0.0385,2.82212 -0.47595,4.23293 -1.06304,2.91547 -2.60571,4.74384 -4.870542,5.77252 -1.510499,0.68607 -4.397299,0.6617 -5.970424,-0.0504 z m -33.63323,-13.57304 c -2.408161,-0.86055 -4.086043,-2.46113 -5.289884,-5.04614 -2.505951,-5.38107 -0.948447,-11.93732 3.541726,-14.90878 0.965425,-0.63889 1.322692,-0.71418 3.388791,-0.71418 2.262135,0 2.341356,0.0218 3.855781,1.06114 1.701932,1.16803 2.911168,2.77412 3.83508,5.0937 0.518874,1.30269 0.603485,1.98731 0.596355,4.82537 -0.0099,3.95704 -0.510662,5.56449 -2.381491,7.6453 -1.896795,2.10969 -5.005538,2.95156 -7.546358,2.04359 z m 19.002481,-1.3e-4 c -3.670766,-1.36858 -5.483477,-4.5445 -5.499016,-9.63444 -0.0122,-3.99356 1.153218,-7.06602 3.476271,-9.16475 3.861316,-3.48847 9.160923,-2.32897 11.655303,2.55007 1.288177,2.51968 1.672466,6.30608 0.924949,9.11353 -0.767717,2.88335 -2.814397,5.63117 -5.041305,6.76834 -1.36599,0.69754 -4.135712,0.88194 -5.516202,0.36725 z"
       id="path854" />
  </g>
</svg>
