<?xml version="1.0" encoding="UTF-8" standalone="no"?>
<!-- Created with Inkscape (http://www.inkscape.org/) -->

<svg
   width="340"
   height="340"
   viewBox="0 0 89.958326 89.958336"
   version="1.1"
   id="svg1073"
   xmlns="http://www.w3.org/2000/svg"
   xmlns:svg="http://www.w3.org/2000/svg">
  <defs
     id="defs1070" />
  <g
     id="layer1"
     transform="translate(-97.346277,4.1650472)">
    <path
       d="m 128.13429,73.615966 c -4.16832,-0.87616 -7.34423,-4.68072 -7.9492,-9.52269 -0.30848,-2.46904 0.4306,-3.52368 4.33134,-6.18064 2.75712,-1.87799 4.28055,-3.486 6.50149,-6.86245 3.96531,-6.0284 7.20818,-8.48057 11.2359,-8.49629 4.2855,-0.0167 7.65456,2.66474 11.94718,9.50888 1.31368,2.09452 3.13924,3.92097 5.75796,5.76079 1.26421,0.88819 2.64281,1.93601 3.06357,2.3285 1.42733,1.33144 1.73674,2.94098 1.06684,5.54975 -1.08515,4.22598 -3.95647,7.12127 -7.86752,7.93321 -1.90387,0.39525 -3.46136,0.16918 -6.95121,-1.00892 -5.55624,-1.87568 -8.4852,-1.87796 -13.89437,-0.0108 -3.21586,1.11007 -5.33104,1.40234 -7.24198,1.00067 z m -12.76744,-18.68669 c -1.15415,-0.38164 -2.57425,-1.28361 -3.36928,-2.13998 -0.97316,-1.04828 -2.19415,-3.49241 -2.73675,-5.47836 -0.43749,-1.60124 -0.48549,-2.22391 -0.38095,-4.94192 0.13401,-3.48468 0.59873,-5.49114 1.89146,-8.16667 2.14347,-4.43625 4.84141,-5.40456 8.11807,-2.91363 2.25516,1.71439 4.90158,7.09196 5.90198,11.99295 0.57798,2.83151 0.40268,6.13128 -0.41036,7.72488 -0.9093,1.78228 -1.66489,2.54324 -3.30029,3.32374 -1.75912,0.83955 -4.20952,1.09643 -5.71388,0.59899 z m 49.24219,-0.12986 c -2.69185,-0.88842 -4.18616,-2.46901 -4.91301,-5.19671 -1.19156,-4.47161 1.36163,-13.24041 5.01657,-17.22911 1.5994,-1.74548 2.7492,-2.42359 4.1094,-2.42359 1.95556,0 3.50166,1.30442 4.94629,4.1731 1.85924,3.69195 2.58784,9.543 1.62341,13.03679 -0.9672,3.50381 -2.82112,6.17592 -5.08465,7.32863 -1.55687,0.79283 -3.85744,0.91836 -5.69801,0.31089 z m -35.5771,-19.40279 c -5.09483,-1.43872 -7.60777,-8.24013 -5.71478,-15.46734 0.87329,-3.33415 2.94513,-7.16924 5.10919,-9.45742 4.65258,-4.9194105 8.99262,-2.9029205 11.11587,5.16472 0.49541,1.88235 0.60947,2.91716 0.70455,6.39172 0.13036,4.76434 -0.16097,6.77565 -1.31162,9.05507 -0.98098,1.94331 -1.89198,2.88429 -3.61241,3.73125 -1.24412,0.61247 -1.8123,0.7485 -3.37072,0.80697 -1.05852,0.0397 -2.32953,-0.0582 -2.92008,-0.22497 z m 21.78667,0.0643 c -2.29027,-0.57832 -4.06096,-2.07379 -5.19877,-4.39076 -1.02359,-2.08435 -1.39753,-4.16237 -1.40111,-7.78602 -0.009,-8.99086 3.0107,-15.5168905 7.15654,-15.4670105 1.54972,0.0187 2.98237,0.83736 4.78383,2.7338305 4.29395,4.52042 6.50301,11.46673 5.43826,17.10045 -0.94911,5.02187 -3.71304,7.76287 -8.0133,7.9468 -1.04496,0.0447 -2.28941,-0.0171 -2.76545,-0.13729 z"
       style="opacity:1;fill:#ffffff;stroke-width:0.060816"
       id="path979" />
  </g>
</svg>
