<?xml version="1.0" encoding="UTF-8" standalone="no"?>
<!-- Created with Inkscape (http://www.inkscape.org/) -->

<svg
   width="154.32878"
   height="149.02995"
   viewBox="0 0 40.832825 39.430843"
   version="1.1"
   id="svg5"
   xmlns="http://www.w3.org/2000/svg"
   xmlns:svg="http://www.w3.org/2000/svg">
  <defs
     id="defs2" />
  <g
     id="layer1"
     transform="translate(-13.990683,-74.458075)">
    <path
       style="fill:#003c77;fill-opacity:1;stroke-width:0.264583"
       d="m 31.41122,111.46737 c -3.611745,-3.01661 -9.43206,-8.68351 -11.627873,-11.32138 -4.458645,-5.356255 -5.792664,-8.341935 -5.792664,-12.964585 0,-4.12186 1.161997,-7.13701 3.66154,-9.50097 4.634086,-4.382729 11.442633,-4.285232 16.361102,0.23428 1.031343,0.94769 2.241484,2.91669 1.792587,2.91669 -0.135451,0 -1.07586,-0.4701 -2.089796,-1.04466 -5.004477,-2.835849 -8.502134,-2.792829 -11.597648,0.14266 -2.049737,1.94378 -3.010373,4.17167 -3.010373,6.98159 0,1.25123 0.0366,1.32777 0.513015,1.0728 0.282159,-0.15101 0.829872,-0.85673 1.217143,-1.56827 0.405598,-0.74522 1.702466,-2.21336 3.058861,-3.46284 1.295101,-1.19301 2.354731,-2.31419 2.354731,-2.49151 0,-0.17731 0.165737,-0.54904 0.368308,-0.82607 0.347162,-0.47478 0.396557,-0.4437 0.860308,0.54119 0.670134,1.4232 1.226762,1.4629 1.96999,0.1405 0.33165,-0.59009 0.757404,-1.07289 0.946115,-1.07289 0.481304,0 0.713079,1.14059 0.535856,2.63699 -0.131456,1.10992 -0.06913,1.34618 0.494932,1.87608 0.471382,0.44284 0.645324,0.88606 0.645324,1.64436 0,0.9294 0.166235,1.19173 1.5875,2.50516 1.408075,1.30125 2.037853,2.44991 1.343218,2.44991 -0.134358,0 -0.631489,0.32581 -1.104738,0.72402 -0.643634,0.54158 -1.165448,0.73142 -2.07082,0.75337 -0.665702,0.0161 -1.348438,0.0475 -1.51719,0.0697 -0.183115,0.0241 -0.299741,0.50884 -0.289258,1.20227 0.01252,0.82716 -0.212879,1.57036 -0.78232,2.57969 -0.439936,0.77979 -0.885404,1.8076 -0.989928,2.28403 -0.104524,0.47642 -0.492495,1.22567 -0.862161,1.665004 -0.369662,0.439321 -0.668184,1.061541 -0.663379,1.382721 0.0048,0.32118 0.952529,2.01271 2.106054,3.75896 2.138754,3.23773 5.367026,8.20027 5.722951,8.79739 0.450167,0.75524 -0.389215,0.19246 -3.141387,-2.10622 z m 4.630208,0.44414 c 0,-0.11276 0.595313,-0.83447 1.322917,-1.60381 0.727604,-0.76933 1.322916,-1.5315 1.322916,-1.69372 0,-0.16222 -0.223268,-0.79442 -0.496152,-1.4049 -0.361833,-0.80947 -0.546391,-2.07695 -0.681728,-4.68184 -0.15045,-2.895751 -0.286168,-3.734935 -0.716978,-4.433275 -0.435875,-0.70654 -0.503399,-1.14026 -0.375627,-2.41274 0.111141,-1.10686 0.03707,-1.83546 -0.258534,-2.54293 -0.693595,-1.66001 -0.354979,-1.8923 1.384818,-0.94999 1.793624,0.97147 3.39162,1.06369 5.374696,0.31018 1.290754,-0.49044 1.325755,-0.4907 1.325755,-0.01 0,0.27167 -0.238125,1.09808 -0.529166,1.83646 -0.291042,0.73838 -0.529167,1.72568 -0.529167,2.19401 0,0.94732 1.712116,3.891405 2.263024,3.891405 0.498493,0 2.72398,-2.581845 3.410682,-3.956815 0.801032,-1.60389 0.945513,-2.29207 0.969415,-4.61738 0.03535,-3.43858 -1.462495,-5.9132 -4.526454,-7.47827 -1.210022,-0.61808 -1.789555,-0.74376 -3.439584,-0.74595 -1.705975,-0.002 -2.163609,0.10273 -3.261918,0.7483 -0.702646,0.41301 -1.353918,0.67456 -1.447268,0.58121 -0.397759,-0.39776 1.11896,-2.54748 2.3178,-3.28513 1.641875,-1.01026 3.361531,-1.2255 5.77337,-0.72261 5.213752,1.08709 9.587664,5.51023 9.57925,9.68706 -0.0091,4.52811 -2.431666,8.04812 -9.389359,13.642955 -1.600729,1.28718 -3.684323,3.0058 -4.630208,3.81914 -3.553592,3.05567 -4.7625,4.02747 -4.7625,3.82843 z"
       id="path25" />
  </g>
</svg>
